<?xml version="1.0" encoding="utf-8"?>
<!-- Generator: Adobe Illustrator 25.4.1, SVG Export Plug-In . SVG Version: 6.00 Build 0)  -->
<svg version="1.1" id="Layer_1" xmlns="http://www.w3.org/2000/svg" xmlns:xlink="http://www.w3.org/1999/xlink" x="0px" y="0px"
	 viewBox="0 0 196 34" style="enable-background:new 0 0 196 34;" xml:space="preserve">
<g>
	<path d="M8.47,1.79c0.98,0,1.91,0.14,2.8,0.42c0.89,0.28,1.53,0.56,1.93,0.84l0.6,0.42l1.02-1.37h0.17l0.56,6.72H15.3
		c-0.23-1.66-0.92-3.21-2.07-4.66C12.09,2.72,10.5,2,8.47,2c-1.33,0-2.39,0.4-3.19,1.19C4.49,3.98,4.09,4.96,4.09,6.13
		c0,1.19,0.43,2.19,1.28,3.01c0.85,0.82,1.88,1.48,3.08,2c1.2,0.51,2.4,1.06,3.61,1.65c1.2,0.58,2.23,1.41,3.08,2.47
		c0.85,1.06,1.28,2.38,1.28,3.94c0,2.19-0.79,3.9-2.38,5.11c-1.59,1.21-3.52,1.82-5.81,1.82c-1.14,0-2.23-0.16-3.26-0.47
		c-1.03-0.31-1.77-0.64-2.24-0.96l-0.67-0.45L0.98,25.6H0.84l-0.35-7.28H0.7c0.19,2.12,0.92,3.92,2.21,5.39
		c1.28,1.47,3.06,2.21,5.32,2.21c1.75,0,3.1-0.45,4.04-1.37c0.95-0.91,1.42-2.13,1.42-3.68c0-1.1-0.3-2.05-0.89-2.87
		c-0.6-0.82-1.34-1.45-2.22-1.89c-0.89-0.44-1.84-0.92-2.87-1.42c-1.03-0.5-1.98-0.99-2.87-1.47c-0.89-0.48-1.63-1.17-2.22-2.07
		c-0.6-0.9-0.89-1.95-0.89-3.17c0-1.82,0.64-3.31,1.93-4.46C4.92,2.36,6.53,1.79,8.47,1.79z"/>
	<path d="M26.13,8.68c2.15,0,3.86,0.79,5.15,2.36c1.28,1.58,1.93,3.66,1.93,6.25c0,2.52-0.75,4.62-2.24,6.3
		c-1.49,1.68-3.35,2.52-5.57,2.52c-1.77,0-3.27-0.79-4.48-2.38v6.69c0,1.45,0.13,2.35,0.4,2.71c0.27,0.36,1.02,0.58,2.26,0.65V34
		h-8.12v-0.21c1.12-0.09,1.81-0.33,2.08-0.7c0.27-0.37,0.4-1.25,0.4-2.63v-17.4c0-1.17-0.16-1.93-0.47-2.28
		c-0.32-0.35-1.01-0.53-2.08-0.53v-0.21c0.65-0.02,1.44-0.15,2.36-0.39c0.92-0.23,1.69-0.46,2.29-0.67l0.88-0.31v2.91
		C22.18,9.65,23.92,8.68,26.13,8.68z M24.98,25.84c1.8,0,3.06-0.74,3.8-2.21c0.74-1.47,1.1-3.59,1.1-6.37
		c0-2.57-0.32-4.58-0.96-6.04c-0.64-1.46-1.76-2.19-3.34-2.19c-1.33,0-2.44,0.48-3.33,1.44c-0.89,0.96-1.33,2.45-1.33,4.48v5.67
		c0,1.75,0.37,3.06,1.1,3.92C22.75,25.41,23.74,25.84,24.98,25.84z"/>
	<path d="M49.21,23.85l0.17,0.04c-0.02,0.07-0.05,0.15-0.07,0.24c-0.02,0.09-0.11,0.27-0.26,0.53c-0.15,0.26-0.32,0.48-0.51,0.67
		c-0.19,0.19-0.46,0.36-0.82,0.53c-0.36,0.16-0.75,0.24-1.17,0.24c-1.82,0-2.8-1.07-2.94-3.22c-0.49,1.05-1.23,1.86-2.21,2.42
		c-0.98,0.56-2.08,0.84-3.29,0.84c-1.59,0-2.82-0.34-3.71-1.02c-0.89-0.68-1.33-1.62-1.33-2.84c0-1.03,0.4-1.81,1.21-2.36
		c0.81-0.55,2.08-1.08,3.83-1.59l5.43-1.58v-2.66c0-1.77-0.27-3.06-0.81-3.87C42.2,9.4,41.26,9,39.93,9c-1.82,0-2.88,0.96-3.19,2.87
		c-0.07,0.42-0.13,0.72-0.18,0.91c-0.05,0.19-0.13,0.42-0.24,0.7c-0.12,0.28-0.27,0.48-0.46,0.6c-0.19,0.12-0.42,0.17-0.7,0.17
		c-0.4,0-0.72-0.15-0.96-0.44c-0.25-0.29-0.37-0.64-0.37-1.03c0-1.03,0.55-1.96,1.65-2.8c1.1-0.84,2.79-1.26,5.08-1.26
		c3.97,0,5.95,1.59,5.95,4.76v9.59c0,0.7,0.09,1.19,0.28,1.47c0.19,0.28,0.51,0.42,0.98,0.42c0.33,0,0.61-0.09,0.86-0.28
		c0.25-0.19,0.4-0.37,0.47-0.56L49.21,23.85z M39.3,25.46c1.24,0,2.25-0.42,3.05-1.26c0.79-0.84,1.19-1.94,1.19-3.29v-3.92
		l-4.03,1.23c-2.22,0.65-3.33,2.01-3.33,4.06C36.19,24.39,37.23,25.46,39.3,25.46z"/>
	<path d="M53.7,8.65v4.59c0.37-1.31,0.94-2.39,1.7-3.26c0.76-0.86,1.7-1.3,2.82-1.3c0.58,0,1.09,0.15,1.52,0.44
		c0.43,0.29,0.65,0.71,0.65,1.24c0,0.44-0.12,0.8-0.35,1.07c-0.23,0.27-0.54,0.4-0.91,0.4c-0.54,0-1.02-0.34-1.44-1.02
		c-0.42-0.68-0.88-1.02-1.37-1.02c-0.61,0-1.16,0.52-1.65,1.56c-0.49,1.04-0.74,2.54-0.74,4.5v6.02c0,1.52,0.13,2.47,0.4,2.85
		c0.27,0.38,1.02,0.61,2.26,0.68v0.17h-8.12v-0.17c1.14-0.09,1.84-0.34,2.1-0.74c0.26-0.4,0.39-1.32,0.39-2.77v-8.86
		c0-1.19-0.15-1.95-0.46-2.29c-0.3-0.34-1-0.51-2.1-0.51v-0.21c0.65-0.02,1.42-0.15,2.29-0.39C51.58,9.43,52.3,9.21,52.86,9
		L53.7,8.65z"/>
	<path d="M64.56,5.08v4.13h4.66v0.25h-4.66v12.54c0,2.12,0.77,3.19,2.31,3.19c0.54,0,1.04-0.12,1.52-0.37
		c0.48-0.25,0.82-0.5,1.03-0.75l0.32-0.35l0.1,0.18c-0.12,0.16-0.29,0.37-0.51,0.61c-0.22,0.25-0.71,0.58-1.47,1
		c-0.76,0.42-1.56,0.63-2.4,0.63c-2.59,0-3.89-1.32-3.89-3.96V9.45h-1.82V9.28c0.91-0.21,1.82-0.72,2.73-1.52
		c0.91-0.81,1.54-1.7,1.89-2.68H64.56z"/>
	<path d="M85.59,23.85l0.18,0.04c-0.02,0.07-0.05,0.15-0.07,0.24c-0.02,0.09-0.11,0.27-0.26,0.53c-0.15,0.26-0.32,0.48-0.51,0.67
		c-0.19,0.19-0.46,0.36-0.82,0.53c-0.36,0.16-0.75,0.24-1.17,0.24c-1.82,0-2.8-1.07-2.94-3.22c-0.49,1.05-1.23,1.86-2.21,2.42
		c-0.98,0.56-2.08,0.84-3.29,0.84c-1.59,0-2.83-0.34-3.71-1.02c-0.89-0.68-1.33-1.62-1.33-2.84c0-1.03,0.4-1.81,1.21-2.36
		c0.8-0.55,2.08-1.08,3.83-1.59l5.43-1.58v-2.66c0-1.77-0.27-3.06-0.81-3.87C78.58,9.4,77.64,9,76.31,9c-1.82,0-2.88,0.96-3.19,2.87
		c-0.07,0.42-0.13,0.72-0.17,0.91c-0.05,0.19-0.13,0.42-0.25,0.7c-0.12,0.28-0.27,0.48-0.46,0.6c-0.19,0.12-0.42,0.17-0.7,0.17
		c-0.4,0-0.72-0.15-0.96-0.44c-0.25-0.29-0.37-0.64-0.37-1.03c0-1.03,0.55-1.96,1.65-2.8c1.1-0.84,2.79-1.26,5.08-1.26
		c3.97,0,5.95,1.59,5.95,4.76v9.59c0,0.7,0.09,1.19,0.28,1.47c0.19,0.28,0.51,0.42,0.98,0.42c0.33,0,0.61-0.09,0.86-0.28
		c0.25-0.19,0.4-0.37,0.47-0.56L85.59,23.85z M75.68,25.46c1.24,0,2.25-0.42,3.05-1.26c0.79-0.84,1.19-1.94,1.19-3.29v-3.92
		l-4.03,1.23c-2.22,0.65-3.33,2.01-3.33,4.06C72.57,24.39,73.61,25.46,75.68,25.46z"/>
	<path d="M100.05,14.99h-2.52v6.93c0,1.52,0.14,2.47,0.42,2.87c0.28,0.4,1.04,0.59,2.28,0.59v0.21H91.2v-0.17
		c1.42-0.07,2.28-0.27,2.56-0.59c0.28-0.33,0.42-1.3,0.42-2.91V5.99c0-1.61-0.15-2.58-0.44-2.91c-0.29-0.33-1.14-0.53-2.54-0.6V2.31
		h8.82c2.89,0,5.15,0.53,6.78,1.59c1.62,1.06,2.43,2.57,2.43,4.53c0,2.01-0.88,3.6-2.63,4.78C104.85,14.4,102.67,14.99,100.05,14.99
		z M100.02,2.52h-2.49v12.22h2.35c1.89,0,3.31-0.57,4.27-1.7c0.96-1.13,1.44-2.64,1.44-4.53C105.59,4.52,103.73,2.52,100.02,2.52z"
		/>
	<path d="M113.26,0v21.92c0,1.45,0.13,2.37,0.39,2.77c0.26,0.4,0.94,0.64,2.07,0.74v0.17h-7.67v-0.17c1.05-0.07,1.7-0.3,1.94-0.68
		c0.25-0.38,0.37-1.32,0.37-2.82V4.48c0-1.24-0.14-2.04-0.42-2.4c-0.28-0.36-0.98-0.54-2.1-0.54V1.4c0.7-0.02,1.5-0.15,2.4-0.39
		c0.9-0.23,1.63-0.47,2.19-0.7L113.26,0z"/>
	<path d="M130.84,23.85l0.17,0.04c-0.02,0.07-0.05,0.15-0.07,0.24c-0.02,0.09-0.11,0.27-0.26,0.53c-0.15,0.26-0.32,0.48-0.51,0.67
		c-0.19,0.19-0.46,0.36-0.82,0.53c-0.36,0.16-0.75,0.24-1.17,0.24c-1.82,0-2.8-1.07-2.94-3.22c-0.49,1.05-1.22,1.86-2.21,2.42
		c-0.98,0.56-2.08,0.84-3.29,0.84c-1.59,0-2.83-0.34-3.71-1.02c-0.89-0.68-1.33-1.62-1.33-2.84c0-1.03,0.4-1.81,1.21-2.36
		c0.81-0.55,2.08-1.08,3.83-1.59l5.43-1.58v-2.66c0-1.77-0.27-3.06-0.81-3.87C123.82,9.4,122.89,9,121.56,9
		c-1.82,0-2.88,0.96-3.19,2.87c-0.07,0.42-0.13,0.72-0.18,0.91c-0.05,0.19-0.13,0.42-0.24,0.7c-0.12,0.28-0.27,0.48-0.46,0.6
		c-0.19,0.12-0.42,0.17-0.7,0.17c-0.4,0-0.72-0.15-0.96-0.44c-0.25-0.29-0.37-0.64-0.37-1.03c0-1.03,0.55-1.96,1.65-2.8
		c1.1-0.84,2.79-1.26,5.08-1.26c3.97,0,5.95,1.59,5.95,4.76v9.59c0,0.7,0.09,1.19,0.28,1.47c0.19,0.28,0.51,0.42,0.98,0.42
		c0.33,0,0.61-0.09,0.86-0.28c0.25-0.19,0.4-0.37,0.47-0.56L130.84,23.85z M120.93,25.46c1.24,0,2.25-0.42,3.05-1.26
		c0.79-0.84,1.19-1.94,1.19-3.29v-3.92l-4.03,1.23c-2.22,0.65-3.33,2.01-3.33,4.06C117.81,24.39,118.85,25.46,120.93,25.46z"/>
	<path d="M138.59,25.67c1.4,0,2.53-0.33,3.4-1c0.86-0.67,1.47-1.43,1.82-2.29h0.21c-0.37,0.96-1.05,1.82-2.03,2.59
		s-2.31,1.16-3.99,1.16c-2.48,0-4.45-0.78-5.94-2.33c-1.48-1.55-2.22-3.62-2.22-6.22c0-2.5,0.75-4.6,2.24-6.32
		c1.49-1.72,3.35-2.57,5.57-2.57c1.96,0,3.51,0.59,4.66,1.77c1.14,1.18,1.75,2.85,1.82,5.02h-10.89c-0.05,0.89-0.07,1.6-0.07,2.14
		C133.16,22.98,134.97,25.67,138.59,25.67z M137.65,8.86c-2.57,0-4.03,2.11-4.38,6.34h7.42c0.21-0.56,0.32-1.26,0.32-2.1
		C141.01,10.27,139.89,8.86,137.65,8.86z"/>
	<path d="M149.53,8.68c0.7,0,1.38,0.09,2.03,0.26c0.65,0.17,1.12,0.34,1.4,0.51l0.46,0.25l0.73-0.63h0.14l0.42,4.31h-0.21
		c-0.19-1.19-0.69-2.25-1.52-3.17c-0.83-0.92-1.93-1.38-3.31-1.38h-0.14c-0.98,0.02-1.75,0.28-2.31,0.77
		c-0.56,0.49-0.84,1.21-0.84,2.17c0,0.82,0.31,1.52,0.93,2.12c0.62,0.6,1.37,1.09,2.24,1.49c0.88,0.4,1.76,0.82,2.64,1.26
		c0.89,0.44,1.64,1.05,2.26,1.82c0.62,0.77,0.93,1.69,0.93,2.77c0,1.49-0.5,2.69-1.51,3.59c-1,0.9-2.29,1.35-3.85,1.35
		c-0.75,0-1.49-0.12-2.24-0.35c-0.75-0.23-1.31-0.47-1.68-0.7l-0.53-0.31l-0.91,1.19h-0.14l-0.35-5.11h0.21
		c0.37,1.38,1.04,2.57,2,3.59c0.96,1.02,2.17,1.52,3.64,1.52c1.12,0,1.98-0.26,2.57-0.79s0.89-1.28,0.89-2.26
		c0-0.77-0.3-1.45-0.91-2.03c-0.61-0.58-1.34-1.08-2.21-1.49c-0.86-0.41-1.73-0.85-2.59-1.31c-0.86-0.47-1.6-1.1-2.21-1.91
		c-0.61-0.81-0.91-1.76-0.91-2.85c0-1.38,0.47-2.5,1.42-3.36C147.03,9.12,148.17,8.68,149.53,8.68z"/>
	<path d="M164.24,25.67c1.4,0,2.53-0.33,3.4-1c0.86-0.67,1.47-1.43,1.82-2.29h0.21c-0.37,0.96-1.05,1.82-2.03,2.59
		c-0.98,0.77-2.31,1.16-3.99,1.16c-2.47,0-4.45-0.78-5.93-2.33c-1.48-1.55-2.22-3.62-2.22-6.22c0-2.5,0.75-4.6,2.24-6.32
		c1.49-1.72,3.35-2.57,5.57-2.57c1.96,0,3.51,0.59,4.66,1.77c1.14,1.18,1.75,2.85,1.82,5.02h-10.89c-0.05,0.89-0.07,1.6-0.07,2.14
		C158.81,22.98,160.62,25.67,164.24,25.67z M163.29,8.86c-2.57,0-4.03,2.11-4.38,6.34h7.42c0.21-0.56,0.31-1.26,0.31-2.1
		C166.65,10.27,165.53,8.86,163.29,8.86z"/>
	<path d="M185,21.92c0,1.45,0.13,2.37,0.38,2.77c0.26,0.4,0.96,0.64,2.1,0.74v0.17h-7.74v-0.17c1.05-0.07,1.69-0.3,1.93-0.68
		c0.23-0.38,0.35-1.32,0.35-2.82v-7.28c0-1.87-0.27-3.22-0.81-4.04c-0.54-0.83-1.4-1.24-2.59-1.24c-1.19,0-2.21,0.42-3.05,1.26
		c-0.84,0.84-1.26,2.03-1.26,3.57v7.74c0,1.45,0.13,2.37,0.38,2.77c0.26,0.4,0.95,0.64,2.07,0.74v0.17h-7.74v-0.17
		c1.05-0.07,1.7-0.3,1.94-0.68c0.25-0.38,0.37-1.32,0.37-2.82V13.2c0-1.19-0.16-1.97-0.47-2.35c-0.31-0.37-1.01-0.56-2.08-0.56
		v-0.21c0.65-0.02,1.44-0.15,2.36-0.38c0.92-0.23,1.69-0.47,2.29-0.7l0.88-0.31v3.26c1.24-2.17,3.12-3.26,5.64-3.26
		c1.63,0,2.88,0.41,3.75,1.24c0.86,0.83,1.3,2.05,1.3,3.66V21.92z"/>
	<path d="M190.23,5.08v4.13h4.66v0.25h-4.66v12.54c0,2.12,0.77,3.19,2.31,3.19c0.54,0,1.04-0.12,1.52-0.37
		c0.48-0.25,0.82-0.5,1.03-0.75l0.32-0.35l0.11,0.18c-0.12,0.16-0.29,0.37-0.51,0.61c-0.22,0.25-0.71,0.58-1.47,1
		c-0.76,0.42-1.56,0.63-2.4,0.63c-2.59,0-3.89-1.32-3.89-3.96V9.45h-1.82V9.28c0.91-0.21,1.82-0.72,2.73-1.52
		c0.91-0.81,1.54-1.7,1.89-2.68H190.23z"/>
</g>
</svg>
